<svg xmlns="http://www.w3.org/2000/svg" xml:space="preserve" width="512" height="512">
  <path d="M0 0h512v512H0z" style="fill:#fff"/>
  <path d="M184.837 430.603c.002-30.736-.469-61.197.154-91.635.534-26.084 4.682-51.704 14.534-76.09 3.523-8.72 7.745-17.124 14.1-24.227 1.057-1.182 2.367-2.14 3.855-3.464-3.912-3.262-5.677-7.524-8.238-11.245-1.635-2.376-3.957-4.044-6.474-5.454-9.169-5.138-19.21-8.053-29.042-11.515-7.178-2.528-13.925-5.982-20.534-9.737-7.47-4.245-11.967-10.394-13.56-18.96-1.532-8.243-1.791-16.337.246-24.505 1.232-4.94 4.06-7.987 9.185-8.827 4.976-.814 10.056 1.18 12.607 5.316 2.803 4.544 4.372 9.666 6.378 14.571 3.081 7.533 7.96 13.314 15.428 16.692 4.428 2.004 9.067 1.821 13.654.614 3.113-.82 5.178-3.032 6.713-5.783 2.034-3.644 2.808-7.62 3.118-11.717.248-3.267-.788-5.534-3.814-7.51-8.174-5.338-12.35-13.522-14.055-22.869-1.745-9.574-.303-18.697 5.513-26.807.658-.918 1.397-1.815 2.246-2.55 2.005-1.736 4.242-2.999 7.01-2.007 2.661.954 3.158 3.369 3.465 5.75 1.13 8.764 2.489 17.45 6.648 25.427 3.59 6.885 7.823 13.221 14.417 17.638.394.264.791.524 1.201.763 5.494 3.196 6.683 2.752 9.572-2.747 4.74-9.023 7.463-18.86 11.58-28.13 1.464-3.296 2.839-6.637 5.01-9.55 2.688-3.605 5.921-4.954 9.287-3.962 3.745 1.104 6.296 4.455 6.596 8.73.18 2.579-.12 5.096-.913 7.576-1.746 5.455-4.365 10.478-7.179 15.443-9.334 16.472-8.879 16.174-5.683 35.645.97 5.907 2.577 11.653 6.702 16.365 7.236 8.267 17.353 8.355 24.681.139 6.532-7.324 9.684-16.18 11.626-25.582 1.671-8.095 1.947-16.357 2.915-24.537 1.213-10.254 2.326-20.544 6.28-30.226 1.685-4.127 3.748-5.811 6.373-5.465 2.59.341 4.03 2.523 4.72 6.978 1.28 8.265 1.736 16.587 1.667 24.936-.157 19.076 1.094 38.091 2.396 57.104.136 1.976.503 3.95.924 5.89 1.546 7.12 7.321 9.673 13.777 6.154 3.37-1.837 5.706-4.69 7.574-7.925 4.758-8.238 7.54-16.882 5.99-26.625-.606-3.806-.499-7.766.63-11.573.881-2.977 2.372-5.415 5.68-6.103 3.533-.734 6.37.577 8.553 3.28 2.832 3.509 3.878 7.75 4.615 12.082 1.16 6.808.42 13.623-.05 20.424-.743 10.736-2.311 21.297-7.367 31.022-2.814 5.413-6.215 10.427-10.275 14.972-10.34 11.574-23.46 14.326-38.096 11.547-9.864-1.873-19.645-4.188-29.469-6.276-4.216-.897-4.22-.862-5.84 3.103-3.735 9.14-5.199 18.79-6.213 28.508-.816 7.812-1.618 15.62-.696 23.533.942 8.074 4.321 14.264 11.912 17.698 5.959 2.696 11.96 5.303 17.962 7.9 7.369 3.186 12.857 8.25 16.081 15.693.79 1.82 1.81 3.548 2.812 5.269 3.018 5.19 3.544 10.672 1.204 16.123-2.935 6.84-6.885 13.123-12.53 18.107-7.02 6.198-14.97 6.762-23.383 3.306-8.462-3.475-14.816-9.41-19.522-17.17-2.668-4.4-4.28-9.292-6.395-13.95-2.646-5.827-6.624-6.475-11.244-1.931-3.829 3.765-5.27 8.7-6.404 13.72-1.952 8.637-2.44 17.454-2.797 26.255-1.073 26.443-1.182 52.905-1.37 79.364-.006.949.018 1.904-.087 2.843-.304 2.728-2.284 4.61-4.61 4.453-2.285-.154-3.938-1.993-3.95-4.74-.024-6.07.076-12.142.123-18.213.007-.825.002-1.65.002-2.565-4.913 2.963-7.751 3.976-12.364-1.58-.58-.698-1.226-1.28-2.16-.56-3.568 2.754-6.89 1.928-10.002-.877-.704.47-1.236.844-1.786 1.19-4.892 3.084-9.917 1.351-11.878-4.121-1.813-5.063-1.357-10.31-.96-15.493.192-2.528 2.33-4.013 4.514-3.795 2.364.237 3.889 2.04 3.738 4.84-.188 3.466-.427 6.916-.046 10.924 2.175-2.43 1.92-4.989 2.332-7.306.263-1.48.095-3.033.261-4.538.278-2.512 1.684-4.102 4.276-4.024 2.524.076 4.002 1.68 4.282 4.145.393 3.465.612 6.95 1.146 10.441 1.075-1.625 1.438-3.394 1.49-5.248.045-1.529.26-3.03.886-4.434.704-1.582 1.825-2.727 3.672-2.657 1.925.073 3.088 1.237 3.739 3.002.507 1.377.392 2.807.446 4.223.108 2.858.7 5.577 2.374 8.667.454-2.95.847-5.323 1.178-7.705.277-1.994 1.282-3.434 3.263-3.837 1.698-.344 2.066-1.31 2.04-2.827-.056-3.31-.017-6.62-.017-10.402-3.615 2.486-6.87 1.36-9.896-1.274-.31-.27-.944-.45-1.312-.327-4.284 1.438-7.086-.654-9.428-4.156-3.41 3.273-6.95 3.464-10.645.88-.632-.442-1.246-.358-1.842.069-1.381.988-2.946 1.293-4.594 1.139-1.709-.16-2.353.524-2.378 2.259-.247 17.168-.228 34.334.29 51.497.04 1.332.105 2.652-.237 3.958-.56 2.14-2.009 3.177-4.153 3.158-2.182-.02-3.56-1.248-4.056-3.314-.238-.994-.162-2.073-.16-3.114.013-12.426.039-24.853.06-37.564m65.308-284.328c-2.391 4.83-4.411 9.856-7.844 14.123-1.618 2.01-3.537 3.017-6.133 2.892-5.798-.279-10.58-3.004-14.81-6.575-10.43-8.804-16.67-20.222-19.99-33.34-.565-2.23-1.12-4.464-1.85-7.381-.685 1.441-1.14 2.16-1.383 2.946-3.583 11.55.957 28.792 14.82 34.069 12.332 4.695 18.995 14.3 21.754 26.809 2.188 9.923 1.146 19.792-1.366 29.53-.389 1.51-.238 2.793.456 4.088 2.08 3.879 4.95 7.163 7.892 10.387.798.874 1.905 1.404 3.025 1.45 5.588.227 11.328 2.007 15.804-3.775 3.266-4.219 8.58-6.141 13.012-9.042 2.302-1.506 4.32-3.292 5.659-6.22-4.099.512-7.661-.2-11.085-1.675-9.419-4.054-14.566-11.812-16.994-21.203-3.181-12.303-5.932-24.811-.39-37.603.824-1.489 1.645-2.98 2.474-4.467 3.596-6.45 7.656-12.671 9.718-19.872.379-1.323.84-2.635-.37-4.391-6.015 9.118-8.308 19.372-12.4 29.25m51.33 228.319c2.489-.865 4.848-1.908 6.35-4.376-1.27-.61-2.417-.29-3.523-.343-11.769-.564-20.01-7.922-23.44-19.124-.689-2.25.182-4.202 2.47-5.093 2.328-.905 4.062.117 5.205 2.191.5.91.855 1.901 1.257 2.863 3.842 9.19 13.139 13.13 22.517 9.539 4.8-1.839 6.626-4.713 4.942-9.576-3.188-9.205-7.428-17.628-17.69-21.205a125.528 125.528 0 0 1-18.461-8.149c-6.565-3.555-11.157-8.753-13.096-16.053-1.17-4.408-1.753-8.906-1.88-13.485-.235-8.378.87-16.643 1.82-24.927 1.366-11.89 4.795-23.17 10.056-33.899 1.736-3.54 4.873-3.917 7.439-.932.636.74 1.19 1.398 2.253 1.533 10.467 1.33 20.505 4.709 30.875 6.496 8.614 1.485 17.095 1.498 24.563-3.935 6.897-5.019 11.807-11.734 15.414-19.392 6.296-13.366 6.164-27.775 6.462-42.062.068-3.262-.58-6.663-2.71-9.823-.783 1.739-.633 3.14-.493 4.556.561 5.661 1.078 11.314-.23 16.962-2.175 9.39-5.613 18.19-12.754 24.95-5.852 5.538-12.849 7.597-20.735 4.972-7.53-2.507-9.633-8.95-10.633-15.807-.859-5.894-1.314-11.863-1.65-17.816-.895-15.808-1.59-31.626-1.275-47.47.034-1.684-.075-3.36-.668-5.455-1.92 12.566-2.482 24.798-4.643 36.837-2.134 11.896-6.107 22.898-14.678 31.767-2.006 2.076-3.757 4.251-4.877 6.917-3.178 7.563-8.5 13.159-15.716 16.968-4.514 2.384-8.266 5.686-11.65 9.437-1.49 1.65-3.278 2.514-5.475 2.625-4.564.228-9.089-.22-13.618-.686-3.193-.33-5.72-1.8-7.868-4.111-3.172-3.413-6.066-7.05-8.627-10.93-2.094-3.173-3.36-6.568-2.02-10.48 2.663-7.768 3.02-15.774 2.203-23.861-.818-8.104-4.203-14.79-11.239-19.893-.496 4.042-.98 7.673-2.134 11.178-3.526 10.696-10.835 16.204-22.102 16.082-12.946-.14-21.835-7.07-28.203-17.748-3.17-5.316-4.963-11.268-7.38-16.932-.954-2.235-2.466-3.596-5.001-3.406-2.687.202-2.927 2.454-3.253 4.349-1.374 7.988-.86 15.844 1.928 23.514 1.082 2.976 2.908 5.319 5.573 6.972 6.212 3.855 12.576 7.402 19.5 9.876 8.746 3.124 17.639 5.866 26.113 9.713 6.55 2.973 12.635 6.584 16.605 12.891 2.53 4.021 5.138 7.843 9.393 10.453 3.34 2.049 3.056 5.337-.183 7.604-2.494 1.746-4.877 3.601-6.874 5.922-7.576 8.806-12.062 19.297-15.631 30.107-6.85 20.741-10.133 42.228-10.756 63.981-.607 21.23-.121 42.49-.098 63.736.002 1.198-.207 2.811 1.408 2.992 1.448.161 1.554-1.445 1.868-2.462 1.154-3.73 1.304-7.644 1.966-11.466.511-2.947 2.022-4.452 4.376-4.199 2.643.284 3.743 2.086 3.847 4.508.13 3.03.065 6.07.107 9.104.014 1.055-.042 2.154.832 3.131.832-1.19 1.054-2.307 1.267-3.417.534-2.785.976-5.59 1.584-8.358.442-2.01 1.84-3.093 3.904-3.043 2.025.05 3.316 1.17 3.955 3.098.43 1.295.337 2.62.388 3.944.109 2.798-.163 5.638.772 8.61.845-3.06.466-5.93.711-8.754.208-2.392 1.44-4.25 4.004-4.424 2.604-.175 3.99 1.465 4.358 3.936.195 1.308.275 2.64.296 3.963.043 2.776.013 5.552.013 8.328l.788.025c.104-.611.203-1.224.314-1.834.603-3.315.504-6.866 3.49-9.34.452-.375.443-1.405.498-2.143.664-9.067.808-18.17 2.017-27.2.17-1.268.05-2.584-1.025-3.748-2.266 2.385-3.264 5.313-4.869 7.857-1.154 1.83-2.851 2.514-4.9 1.915-2.004-.586-2.806-2.151-2.722-4.162.056-1.322.264-2.638.343-3.96.142-2.36.55-4.742-.232-7.276-1.373 1.27-1.988 2.677-2.619 4.032-1.359 2.92-2.562 5.913-3.896 8.846-.878 1.932-2.422 2.888-4.578 2.61-2.05-.263-3.239-1.582-3.621-3.501-.256-1.286-.169-2.642-.216-3.967-.095-2.712-.388-5.381-1.557-8.24-.457.682-.796 1.024-.943 1.436-.609 1.692-1.231 3.386-1.71 5.118-.505 1.823-.76 3.716-1.292 5.53-.673 2.296-2.244 3.525-4.706 3.088-2.284-.405-3.782-2.719-3.308-5.168.81-4.199 2.037-8.286 3.775-12.202.808-1.82 1.637-3.632 2.943-5.175 3.843-4.542 9.558-3.912 12.36 1.344.471.883.522 1.999 1.47 2.751 2.3-3.198 3.901-7.38 8.848-6.925 5.12.472 5.965 4.78 7.073 8.778 2.47-1.223 4.531-3.001 7.354-2.104.781.249 1.244-.36 1.46-1.032 1.014-3.167 2.843-5.955 4.298-8.931-1.198-1.122-2.151-2.304-3.553-2.882-7.24 4.912-8.82 4.376-14.771-4.936-5.497 3.252-6.524 3.133-11.334-1.767-1.108-1.13-1.807-.762-2.885-.027-5.612 3.83-11.244 1.676-12.772-4.959-1.27-5.512-.186-10.928 1.211-16.273.636-2.43 2.194-3.755 4.817-3.33 2.401.39 3.78 2.392 3.367 5.085-.33 2.148-1.097 4.233-1.377 6.384-.216 1.665-1.118 3.442.21 5.41 2.513-2.487 2.97-5.632 3.823-8.568.65-2.24 1.535-4.192 4.255-4.187 2.276.004 3.597 1.87 4.15 4.956.573 3.2.06 6.59 1.595 9.888 1.724-2.05 2.118-4.45 3.1-6.565.836-1.803 2.13-2.92 4.22-2.696 2.056.222 3.22 1.449 3.574 3.463.181 1.026.314 2.06.527 3.079.532 2.552.749 5.192 2.04 7.895 1.274-1.592 1.423-3.348 2.082-4.861.887-2.038 2.025-3.803 4.51-3.659 2.445.142 3.454 1.857 4.06 4.088 1.93 7.095 3.496 8.045 10.685 6.82 5.918-1.006 10.399 1.012 13.504 6.145 1.871 3.094 3.265 6.423 4.573 9.781 1.774 4.553 4.16 8.764 7.391 12.404 5.386 6.065 11.851 10.01 20.832 9.377zM244.204 95.579c-.519 3.069-2.444 4.284-5.057 4.346-4.358.102-8.729.163-13.077-.073-3.757-.204-5.433-2.167-5.356-5.96.095-4.72.093-9.448 1.377-14.08.657-2.368-.767-4.415-1.81-6.406-5.159-9.852-3.559-19.26 1.929-28.329 2.678-4.426 6.604-7.326 11.895-7.872 7.234-.746 12.788 2.86 15.375 9.959 3.206 8.799 1.67 17.262-2.532 25.245-2.15 4.086-3.324 8.049-2.776 12.692.397 3.365.066 6.816.032 10.478m-13.411-47.503c-5.554 6.475-6.52 14.415-2.733 21.881.94 1.854 1.792 3.77 2.47 5.732.396 1.149.882 1.806 2.147 1.794 1.357-.012 2.635.028 3.308-1.556 1.743-4.097 3.664-8.12 5.325-12.25 1.528-3.799 1.547-7.848.776-11.77-1.204-6.117-5.957-7.793-11.293-3.831m-.55 38.076c-1.288 1.39-1.076 3.116-.375 4.473.62 1.2 2.245.55 3.436.645 2.025.161 2.28-1.118 2.293-2.727.014-1.7-.48-2.781-2.415-2.64-.85.061-1.701.083-2.94.25zM278.286 49.752c2.361 1.314 2.844 3.179 2.2 5.439-3.324 11.65-6.621 23.309-10.012 34.94-.847 2.908-2.959 4.148-5.275 3.457-2.419-.72-3.517-3.048-2.675-6.005 3.24-11.382 6.494-22.76 9.815-34.12 1.047-3.58 2.43-4.39 5.947-3.711zM295.308 78.136c-2.083 5.82-4.063 11.44-6.093 17.044-1.088 3.002-2.932 4.175-5.26 3.47-2.61-.793-3.78-3.103-2.708-6.19 3.848-11.081 7.798-22.127 11.778-33.162.815-2.26 2.579-3.248 4.979-2.592 2.28.624 3.616 2.995 2.837 5.395-1.723 5.307-3.623 10.556-5.533 16.035zM176.683 76.846c-2.303-3.608-4.525-7.022-6.686-10.475-1.735-2.773-1.418-5.082.79-6.428 2.207-1.345 4.528-.712 6.25 1.984a2313.31 2313.31 0 0 1 15.596 24.767c1.625 2.617 1.137 4.814-1.087 6.131-2.21 1.308-4.387.718-6.017-1.828-2.962-4.626-5.83-9.313-8.846-14.15zM188.253 54.408c-1.397-3.407-.803-5.501 1.727-6.591 2.489-1.072 4.624-.008 5.973 3.102a3809.41 3809.41 0 0 1 11.097 25.794c1.28 3.012.438 5.324-2.125 6.338-2.277.9-4.127.108-5.382-2.696-3.09-6.903-6.046-13.866-9.056-20.804-.715-1.648-1.433-3.295-2.234-5.143z"/>
  <path d="M234.58 263.17c6.308-1.27 11.477 1.696 13.18 7.646 1.374 4.796.989 9.59-1.15 14.12-2.562 5.426-7.66 8.522-12.367 7.712-5.792-.997-9.93-5.557-10.65-11.734-.92-7.904 3.284-14.816 10.987-17.745zM306.09 344.244c-1.036 2.71-2.843 4.036-5.522 3.91-2.491-.119-3.906-1.688-4.69-3.918-.898-2.555-.441-4.904 1.414-6.833 2.132-2.218 5.673-1.738 7.631.967 1.218 1.681 1.635 3.592 1.167 5.874z"/>
</svg>
